<?xml version="1.0" encoding="UTF-8"?>
<svg viewBox="0 0 371.12 425.11" xmlns="http://www.w3.org/2000/svg" xmlns:xlink="http://www.w3.org/1999/xlink">
 <defs>
  <filter id="g" x="-.072894" y="-.25016" width="1.1458" height="1.5003">
   <feGaussianBlur stdDeviation="18.13611"/>
  </filter>
  <linearGradient id="k" x1=".72962" x2=".72015" y2=".64845" xlink:href="#a"/>
  <linearGradient id="h" x1=".72813" x2=".36059" y1="-.024088" y2=".58757" xlink:href="#a"/>
  <linearGradient id="j" x1=".5" x2=".54535" y1="1.7143" y2=".59089">
   <stop stop-color="#fff" offset="0"/>
   <stop stop-color="#fff" stop-opacity="0" offset="1"/>
  </linearGradient>
  <linearGradient id="i" x1=".4501" x2=".52278" y1="-.07786" y2="1.1001">
   <stop stop-color="#eeeeec" offset="0"/>
   <stop stop-color="#eeeeec" stop-opacity="0" offset="1"/>
  </linearGradient>
  <linearGradient id="a">
   <stop stop-color="#555753" offset="0"/>
   <stop stop-color="#555753" stop-opacity="0" offset="1"/>
  </linearGradient>
 </defs>
 <g stroke-width="12">
  <path d="m194.92 117.84c-0.19156-1.0386 0.079193-2.1889 0.87915-3.453 8.5494-13.51 42.165-58.904 62.094-68.721 25.041-12.335 45.997 12.672 48.711 28.347 0.23041 1.3307 0.30438 2.6966 0.23535 4.0833 0.51379 1.1786 0.89294 2.4324 1.1236 3.7643 2.7145 15.675-7.6342 51.921-33.766 57.959-20.797 4.8054-65.279-12.55-77.232-18.698-1.2653-0.65076-1.8793-1.6334-1.941-2.8795-0.040802-0.13243-0.079193-0.2652-0.10434-0.40147z" fill="#73d216"/>
  <path d="m201.75 114.66c-0.16531-0.89632 0.068298-1.889 0.75867-2.9799 7.378-11.658 36.388-50.834 53.586-59.306 21.61-10.645 39.695 10.935 42.037 24.463 0.19885 1.1484 0.2627 2.3272 0.20312 3.5238 0.44336 1.0171 0.77063 2.0992 0.96967 3.2486 2.3426 13.528-6.5882 44.807-29.14 50.018-17.948 4.147-56.335-10.831-66.651-16.136-1.0919-0.56162-1.6218-1.4096-1.675-2.4849-0.035217-0.11432-0.068359-0.22885-0.090027-0.34648z" fill="url(#h)"/>
  <path d="m235.52 355.5c-18.953 0-36.518 2.0114-50.862 5.4337-13.645-2.9289-29.875-4.629-47.284-4.629-48.392 0-87.656 13.131-87.656 29.308s71.321 38.889 119.71 38.889c18.953 0 5.1151 1.0158 19.459-2.4064 13.645 2.929 9.5944 3.0122 27.003 3.0122 48.392 0 107.28-24.126 107.28-40.303s-39.264-29.304-87.656-29.304z" fill="#555753" filter="url(#g)"/>
  <path d="m252.16 101.92c-25.722 0-49.56 8.8364-69.028 23.87-18.518-12.867-40.546-20.335-64.172-20.335-65.675 0-118.96 57.685-118.96 128.75 0 71.066 96.794 170.84 162.47 170.84 25.722 0 6.942 4.4625 26.409-10.571 18.518 12.867 13.021 13.232 36.648 13.232 65.675 0 145.6-105.99 145.6-177.05 0-71.066-53.288-128.73-118.96-128.73z" fill="#a40000"/>
  <path d="m188.76 296.31c-52.74 0-100.45 12.051-134.78 31.474 29.914 38.853 74.478 70.613 109.14 70.613 22.507 0 6.0791 3.9096 23.113-9.2451 16.203 11.258 11.396 11.573 32.069 11.573 35.072 0 74.777-34.552 100.4-75.609-33.907-17.864-79.641-28.806-129.94-28.806z" fill="url(#j)"/>
  <path d="m190.95 111.31c0.90476-0.73549 1.437-1.8299 1.533-3.3237 1.0266-15.964-0.27862-72.44-12.878-91.988-15.831-24.563-53.515-16.325-66.998-5.122-1.1446 0.95099-2.1614 2.0214-3.0533 3.1916-1.3151 0.66283-2.5513 1.4651-3.6969 2.4169-13.483 11.203-28.486 46.74-7.2386 66.803 16.91 15.967 72.19 27.596 88.072 29.512 1.6811 0.20274 2.9582-0.24231 3.88-1.2222 0.13132-0.08429 0.2605-0.17024 0.37921-0.26675z" fill="#73d216"/>
  <path d="m186.51 104.76c0.78079-0.63472 1.2401-1.5792 1.323-2.8683 0.88599-13.777-0.24045-62.515-11.113-79.385-13.662-21.198-46.183-14.088-57.819-4.4203-0.98776 0.82069-1.8652 1.7445-2.635 2.7543-1.1349 0.57201-2.2017 1.2643-3.1904 2.0858-11.636 9.6679-24.583 40.336-6.2469 57.65 14.593 13.779 62.3 23.815 76.006 25.468 1.4508 0.17496 2.5528-0.20909 3.3484-1.0547 0.11334-0.072739 0.22479-0.14691 0.32727-0.23021z" fill="url(#k)"/>
  <path d="m244.07 110.73c-23.832 0-45.918 8.187-63.955 22.116-17.157-11.921-37.566-18.841-59.456-18.841-60.849 0-110.22 53.446-110.22 119.29 0 0.27518 0.014862 0.5517 0.01799 0.82779 0 0 47.011 14.538 164.46-27.147 120.42-42.74 179.27 27.147 179.27 27.147 0.062195-1.3845 0.10797-2.7628 0.10797-4.1209 0-65.844-49.372-119.27-110.22-119.27z" fill="url(#i)"/>
  <path d="m255.16 15.882c-12.74 6.8618-22.411 18.222-30.202 30.28-11.78 19.121-19.356 40.492-28.75 60.78-4.7396 10.689-9.7249 21.238-14.135 32.059 0.19373 2.9885 4.0192 3.2138 5.4189 1.01 8.3413-14.317 14.98-29.734 22.671-44.474 6.2735-12.312 13.164-24.376 20.602-36.052 7.4025-10.159 15.645-19.752 21.947-30.804 1.828-3.5786 4.7652-6.9851 5.38-10.974-0.3154-1.2532-1.688-2.0179-2.9328-1.8257z" fill="#8f5902"/>
 </g>
</svg>
